<svg width="932" height="1055" viewBox="0 0 932 1055" fill="none" xmlns="http://www.w3.org/2000/svg">
<circle cx="466" cy="496" r="448.5" fill="white" stroke="#77A0C9" stroke-width="35"/>
<path d="M340.643 584.512V835H256.268V195.156H492.254C562.273 195.156 617.059 213.027 656.609 248.77C696.453 284.512 716.375 331.826 716.375 390.713C716.375 452.822 696.893 500.723 657.928 534.414C619.256 567.812 563.738 584.512 491.375 584.512H340.643ZM340.643 515.518H492.254C537.371 515.518 571.941 504.971 595.965 483.877C619.988 462.49 632 431.729 632 391.592C632 353.506 619.988 323.037 595.965 300.186C571.941 277.334 538.982 265.469 497.088 264.59H340.643V515.518Z" fill="#BEDFFF"/>
<path d="M530 609H402C384.33 609 370 623.33 370 641V769C370 786.67 384.33 801 402 801H530C547.67 801 562 786.67 562 769V641C562 623.33 547.67 609 530 609ZM338 321C338 303.33 323.67 289 306 289H178C160.33 289 146 303.33 146 321V449C146 466.67 160.33 481 178 481H273.72L346.88 609.04C357.98 589.98 378.4 577 402 577H402.28L338 464.51V417H562V353H338V321ZM754 289H626C608.33 289 594 303.33 594 321V449C594 466.67 608.33 481 626 481H754C771.67 481 786 466.67 786 449V321C786 303.33 771.67 289 754 289Z" fill="#77A0C9"/>
</svg>
